# Blender v3.0.0 OBJ File: 'Book_Obstacle.blend'
# www.blender.org
mtllib Book_Obstacle.mtl
o Cube
v 0.000000 -0.157933 1.029267
v 0.000000 -0.157933 -0.852098
v -1.357110 0.210577 -0.830718
v -1.357110 -0.210577 -0.830718
v -1.357110 0.210577 0.992470
v -1.357110 -0.210577 0.992470
v -1.357110 -0.157933 1.029267
v -1.357110 0.000000 1.092087
v -1.357110 -0.157933 -0.852098
v -1.357110 0.105288 1.066064
v 0.000000 0.157933 1.029267
v 0.000000 0.157933 -0.852098
v -1.357110 0.157933 -0.852098
v -1.357110 0.157933 1.029267
v -1.357110 -0.105288 1.066064
v 0.000000 -0.210577 -0.852098
v 0.000000 0.210577 0.992470
v 0.000000 -0.210577 0.992470
v 0.000000 0.210577 -0.852098
v -1.357110 0.052644 1.032047
v 0.000000 0.000000 1.092087
v 0.000000 0.052644 1.079076
v 0.000000 0.105288 1.066064
v 0.000000 -0.105288 1.066064
v -1.357110 0.052644 1.079076
v -1.357110 -0.197068 0.947550
v -1.357110 0.192592 0.947550
v -1.357110 -0.157933 0.983451
v -1.357110 0.000000 1.044742
v -1.357110 0.105288 1.019352
v -1.357110 0.157933 0.983451
v -1.357110 -0.105288 1.019352
v 0.000000 -0.197068 0.947550
v 0.000000 0.192592 0.947550
v -1.289887 -0.157933 0.983451
v -1.309576 -0.157933 -0.804564
v 0.000000 -0.157933 -0.784875
v -1.309576 0.105288 -0.804564
v -1.309576 0.000000 -0.804564
v 0.000000 -0.105288 -0.784875
v -1.289887 0.000000 1.044742
v -1.309576 0.157933 -0.804564
v -1.309576 -0.105288 -0.804564
v -1.289887 0.105288 1.019352
v -1.289887 0.157933 0.983451
v -1.289887 -0.105288 1.019352
v 0.000000 0.157933 -0.784875
v 0.000000 0.000000 -0.784875
v 0.000000 0.105288 -0.784875
v -1.293068 0.052644 -0.789887
v 0.000000 0.052644 -0.770198
v -1.273379 0.052644 1.032047
v -1.357110 -0.052644 1.079076
v 0.000000 -0.052644 1.079076
v -1.357110 -0.052644 1.032047
v -1.293068 -0.052644 -0.789887
v 0.000000 -0.052644 -0.770198
v -1.273379 -0.052644 1.032047
v 1.357110 0.210577 -0.830718
v 1.357110 -0.210577 -0.830718
v 1.357110 0.210577 0.992470
v 1.357110 -0.210577 0.992470
v 1.357110 -0.157933 1.029267
v 1.357110 0.000000 1.092087
v 1.357110 -0.157933 -0.852098
v 1.357110 0.105288 1.066064
v 1.357110 0.157933 -0.852098
v 1.357110 0.157933 1.029267
v 1.357110 -0.105288 1.066064
v 1.357110 0.052644 1.032047
v 1.357110 0.052644 1.079076
v 1.357110 -0.197068 0.947550
v 1.357110 0.192592 0.947550
v 1.357110 -0.157933 0.983451
v 1.357110 0.000000 1.044742
v 1.357110 0.105288 1.019352
v 1.357110 0.157933 0.983451
v 1.357110 -0.105288 1.019352
v 1.289887 -0.157933 0.983451
v 1.309576 -0.157933 -0.804564
v 1.309576 0.105288 -0.804564
v 1.309576 0.000000 -0.804564
v 1.289887 0.000000 1.044742
v 1.309576 0.157933 -0.804564
v 1.309576 -0.105288 -0.804564
v 1.289887 0.105288 1.019352
v 1.289887 0.157933 0.983451
v 1.289887 -0.105288 1.019352
v 1.293068 0.052644 -0.789887
v 1.273379 0.052644 1.032047
v 1.357110 -0.052644 1.079076
v 1.357110 -0.052644 1.032047
v 1.293068 -0.052644 -0.789887
v 1.273379 -0.052644 1.032047
vt 0.750000 0.743912
vt 0.875000 0.743912
vt 0.875000 0.750000
vt 0.750000 0.750000
vt 0.593750 0.875000
vt 0.625000 0.875000
vt 0.625000 1.000000
vt 0.593750 1.000000
vt 0.593750 0.006088
vt 0.625000 0.006088
vt 0.625000 0.250000
vt 0.593750 0.250000
vt 0.375000 0.875000
vt 0.406250 0.875000
vt 0.406250 1.000000
vt 0.375000 1.000000
vt 0.500000 0.006088
vt 0.531250 0.006088
vt 0.531250 0.006088
vt 0.500000 0.006088
vt 0.468750 0.875000
vt 0.500000 0.875000
vt 0.500000 1.000000
vt 0.468750 1.000000
vt 0.375000 0.006088
vt 0.406250 0.006088
vt 0.406250 0.250000
vt 0.375000 0.250000
vt 0.500000 0.000000
vt 0.531250 0.000000
vt 0.531250 0.875000
vt 0.562500 0.875000
vt 0.562500 1.000000
vt 0.531250 1.000000
vt 0.437500 0.875000
vt 0.437500 1.000000
vt 0.593750 0.250000
vt 0.593750 0.006088
vt 0.406250 0.375000
vt 0.375000 0.375000
vt 0.406250 0.250000
vt 0.406250 0.375000
vt 0.562500 0.006088
vt 0.562500 0.006088
vt 0.406250 0.006088
vt 0.437500 0.006088
vt 0.437500 0.006088
vt 0.625000 0.375000
vt 0.593750 0.375000
vt 0.125000 0.743912
vt 0.250000 0.743912
vt 0.250000 0.750000
vt 0.125000 0.750000
vt 0.125000 0.500000
vt 0.250000 0.500000
vt 0.562500 0.000000
vt 0.593750 0.000000
vt 0.406250 0.000000
vt 0.437500 0.000000
vt 0.375000 0.000000
vt 0.468750 0.000000
vt 0.468750 0.006088
vt 0.625000 0.000000
vt 0.750000 0.500000
vt 0.875000 0.500000
vt 0.468750 0.006088
vt 0.593750 0.375000
vt 0.875000 0.750000
vt 0.875000 0.743912
vt 0.593750 1.000000
vt 0.625000 1.000000
vt 0.593750 0.006088
vt 0.593750 0.250000
vt 0.625000 0.250000
vt 0.625000 0.006088
vt 0.375000 1.000000
vt 0.406250 1.000000
vt 0.500000 0.006088
vt 0.500000 0.006088
vt 0.531250 0.006088
vt 0.531250 0.006088
vt 0.468750 1.000000
vt 0.500000 1.000000
vt 0.375000 0.006088
vt 0.375000 0.250000
vt 0.406250 0.250000
vt 0.406250 0.006088
vt 0.500000 0.000000
vt 0.531250 0.000000
vt 0.531250 1.000000
vt 0.562500 1.000000
vt 0.437500 1.000000
vt 0.593750 0.006088
vt 0.593750 0.250000
vt 0.406250 0.250000
vt 0.562500 0.006088
vt 0.562500 0.006088
vt 0.406250 0.006088
vt 0.437500 0.006088
vt 0.437500 0.006088
vt 0.125000 0.743912
vt 0.125000 0.750000
vt 0.125000 0.500000
vt 0.562500 0.000000
vt 0.593750 0.000000
vt 0.406250 0.000000
vt 0.437500 0.000000
vt 0.375000 0.000000
vt 0.468750 0.000000
vt 0.468750 0.006088
vt 0.625000 0.000000
vt 0.875000 0.500000
vt 0.468750 0.006088
vt 0.531250 0.250000
vt 0.500000 0.250000
vt 0.468750 0.250000
vt 0.562500 0.250000
vt 0.437500 0.250000
vt 0.437500 0.375000
vt 0.562500 0.375000
vt 0.531250 0.375000
vt 0.500000 0.375000
vt 0.468750 0.375000
vt 0.500000 0.250000
vt 0.531250 0.250000
vt 0.468750 0.250000
vt 0.562500 0.250000
vt 0.437500 0.250000
vn 0.0000 0.9284 -0.3717
vn 0.0000 0.5729 0.8196
vn -1.0000 -0.0000 0.0000
vn 0.0000 -0.5729 0.8196
vn 0.0000 -0.2344 -0.9721
vn 0.0000 -0.2399 0.9708
vn 0.0000 0.2399 0.9708
vn 0.0000 -1.0000 0.0000
vn -0.0077 -0.1990 -0.9800
vn 0.0000 1.0000 0.0000
vn 0.0000 0.5634 -0.8262
vn -0.0077 0.1990 -0.9800
vn 0.0000 -0.9576 -0.2880
vn 0.0001 -1.0000 0.0076
vn 0.0001 0.9999 0.0101
vn 0.0000 -0.5634 -0.8262
vn 0.0000 0.2344 -0.9721
vn 1.0000 0.0000 0.0000
vn 0.0077 -0.1990 -0.9800
vn 0.0077 0.1990 -0.9800
vn -0.0001 -1.0000 0.0076
vn -0.0001 0.9999 0.0101
vn -0.9542 0.2990 0.0102
vn -0.9542 -0.2990 0.0102
vn -0.9549 -0.2968 0.0103
vn -0.9999 -0.0037 0.0109
vn 0.0150 0.0000 -0.9999
vn -0.9999 0.0037 0.0109
vn 0.0146 -0.2664 -0.9638
vn 0.0146 0.2664 -0.9638
vn -0.9549 0.2968 0.0103
vn 0.9542 0.2990 0.0102
vn 0.9542 -0.2990 0.0102
vn 0.9549 -0.2968 0.0103
vn 0.9999 -0.0037 0.0109
vn -0.0150 0.0000 -0.9999
vn 0.9999 0.0037 0.0109
vn -0.0146 -0.2664 -0.9638
vn -0.0146 0.2664 -0.9638
vn 0.9549 0.2968 0.0103
g Cube_Cube_Cover
usemtl Cover
s off
f 34/1/1 27/2/1 5/3/1 17/4/1
f 11/5/2 17/6/2 5/7/2 14/8/2
f 31/9/3 27/10/3 3/11/3 13/12/3
f 18/13/4 1/14/4 7/15/4 6/16/4
f 29/17/5 20/18/5 52/19/5 41/20/5
f 54/21/6 21/22/6 8/23/6 53/24/6
f 26/25/3 28/26/3 9/27/3 4/28/3
f 8/29/3 25/30/3 20/18/3 29/17/3
f 22/31/7 23/32/7 10/33/7 25/34/7
f 1/14/4 24/35/4 15/36/4 7/15/4
f 31/9/8 13/12/8 42/37/8 45/38/8
f 4/28/9 9/27/9 2/39/9 16/40/9
f 2/39/10 9/27/10 36/41/10 37/42/10
f 23/32/2 11/5/2 14/8/2 10/33/2
f 20/18/5 30/43/5 44/44/5 52/19/5
f 9/27/10 28/26/10 35/45/10 36/41/10
f 28/26/11 32/46/11 46/47/11 35/45/11
f 13/12/12 3/11/12 19/48/12 12/49/12
f 26/50/13 33/51/13 18/52/13 6/53/13
f 4/54/14 16/55/14 33/51/14 26/50/14
f 10/56/3 14/57/3 31/9/3 30/43/3
f 7/58/3 15/59/3 32/46/3 28/26/3
f 25/30/3 10/56/3 30/43/3 20/18/3
f 6/60/3 7/58/3 28/26/3 26/25/3
f 53/61/3 8/29/3 29/17/3 55/62/3
f 14/57/3 5/63/3 27/10/3 31/9/3
f 19/64/15 3/65/15 27/2/15 34/1/15
f 30/43/16 31/9/16 45/38/16 44/44/16
f 55/62/17 29/17/17 41/20/17 58/66/17
f 13/12/8 12/49/8 47/67/8 42/37/8
f 21/22/7 22/31/7 25/34/7 8/23/7
f 32/46/17 55/62/17 58/66/17 46/47/17
f 15/59/3 53/61/3 55/62/3 32/46/3
f 24/35/6 54/21/6 53/24/6 15/36/6
f 34/1/1 17/4/1 61/68/1 73/69/1
f 11/5/2 68/70/2 61/71/2 17/6/2
f 77/72/18 67/73/18 59/74/18 73/75/18
f 18/13/4 62/76/4 63/77/4 1/14/4
f 75/78/5 83/79/5 90/80/5 70/81/5
f 54/21/6 91/82/6 64/83/6 21/22/6
f 72/84/18 60/85/18 65/86/18 74/87/18
f 64/88/18 75/78/18 70/81/18 71/89/18
f 22/31/7 71/90/7 66/91/7 23/32/7
f 1/14/4 63/77/4 69/92/4 24/35/4
f 77/72/8 87/93/8 84/94/8 67/73/8
f 60/85/19 16/40/19 2/39/19 65/86/19
f 2/39/10 37/42/10 80/95/10 65/86/10
f 23/32/2 66/91/2 68/70/2 11/5/2
f 70/81/5 90/80/5 86/96/5 76/97/5
f 65/86/10 80/95/10 79/98/10 74/87/10
f 74/87/11 79/98/11 88/99/11 78/100/11
f 67/73/20 12/49/20 19/48/20 59/74/20
f 72/101/13 62/102/13 18/52/13 33/51/13
f 60/103/21 72/101/21 33/51/21 16/55/21
f 66/104/18 76/97/18 77/72/18 68/105/18
f 63/106/18 74/87/18 78/100/18 69/107/18
f 71/89/18 70/81/18 76/97/18 66/104/18
f 62/108/18 72/84/18 74/87/18 63/106/18
f 91/109/18 92/110/18 75/78/18 64/88/18
f 68/105/18 77/72/18 73/75/18 61/111/18
f 19/64/22 34/1/22 73/69/22 59/112/22
f 76/97/16 86/96/16 87/93/16 77/72/16
f 92/110/17 94/113/17 83/79/17 75/78/17
f 67/73/8 84/94/8 47/67/8 12/49/8
f 21/22/7 64/83/7 71/90/7 22/31/7
f 78/100/17 88/99/17 94/113/17 92/110/17
f 69/107/18 78/100/18 92/110/18 91/109/18
f 24/35/6 69/92/6 91/82/6 54/21/6
g Cube_Cube_Pages
usemtl Pages
f 41/20/23 52/19/23 50/114/23 39/115/23
f 58/66/24 41/20/24 39/115/24 56/116/24
f 52/19/25 44/44/25 38/117/25 50/114/25
f 35/45/26 46/47/26 43/118/26 36/41/26
f 36/41/27 43/118/27 40/119/27 37/42/27
f 44/44/28 45/38/28 42/37/28 38/117/28
f 50/114/29 38/117/29 49/120/29 51/121/29
f 38/117/27 42/37/27 47/67/27 49/120/27
f 56/116/29 39/115/29 48/122/29 57/123/29
f 39/115/30 50/114/30 51/121/30 48/122/30
f 43/118/30 56/116/30 57/123/30 40/119/30
f 46/47/31 58/66/31 56/116/31 43/118/31
f 83/79/32 82/124/32 89/125/32 90/80/32
f 94/113/33 93/126/33 82/124/33 83/79/33
f 90/80/34 89/125/34 81/127/34 86/96/34
f 79/98/35 80/95/35 85/128/35 88/99/35
f 80/95/36 37/42/36 40/119/36 85/128/36
f 86/96/37 81/127/37 84/94/37 87/93/37
f 89/125/38 51/121/38 49/120/38 81/127/38
f 81/127/36 49/120/36 47/67/36 84/94/36
f 93/126/38 57/123/38 48/122/38 82/124/38
f 82/124/39 48/122/39 51/121/39 89/125/39
f 85/128/39 40/119/39 57/123/39 93/126/39
f 88/99/40 85/128/40 93/126/40 94/113/40
